<?xml version="1.0" standalone="no"?><!DOCTYPE svg PUBLIC "-//W3C//DTD SVG 1.1//EN" "http://www.w3.org/Graphics/SVG/1.1/DTD/svg11.dtd"><svg t="1680502002065" class="icon" viewBox="0 0 1024 1024" version="1.1" xmlns="http://www.w3.org/2000/svg" p-id="4577" xmlns:xlink="http://www.w3.org/1999/xlink" width="200" height="200"><path d="M589.77545482 721.42999703c6.2137837 0 22.36962133 0 22.36962133 21.1268646 0 8.69929718-3.31320889 21.54192592-22.36962133 21.54192592H450.94957511v85.38733986c0 12.42756741 5.799936 19.47026015 19.88410786 19.47026014H612.97398518c22.39510755 0 22.39510755 19.08068503 22.39510757 21.98125986 0 4.55596563 0 22.36962133-22.39510757 22.36962134H456.33444978c-40.20754963 0-56.36338725-14.08538548-56.36338726-55.9507532V636.87156622c0-41.01097245 15.7407763-55.92405333 56.36338726-55.92405333h149.59684267c22.36962133 0 22.36962133 18.22628978 22.36962133 21.95456 0 7.04269275-2.07045215 22.39632118-22.36962133 22.39632119H470.83368297c-13.67032415 0-19.88410785 7.04147911-19.88410786 19.46904651v76.63707023h138.82709334z m317.73187793 177.79188622c0 19.88410785-14.91308089 22.78468267-23.6378643 22.78468267-14.49923318 0-24.85513482-5.799936-24.85513482-22.78468267V756.25509925c0-20.32465541-6.62884503-54.73348267-51.00521245-54.73348266-50.51247882 0-61.28344178 44.79142875-61.28344177 60.94726638V899.22066963c0 19.05641245-13.28196267 22.78468267-23.6378643 22.78468267-15.32814222 0-24.85513482-6.62884503-24.85513481-22.78468267v-216.31734518c0-22.39510755 17.39859437-23.22401659 24.02622578-23.2240166 14.08417185 0 24.46677333 5.799936 24.46677333 23.2240166v15.30144237c12.42756741-14.91308089 34.38212741-38.52545897 75.83364741-38.52545897 52.19578311 0 84.9225197 30.68055703 84.9225197 89.09012385v150.45123793zM306.45361778 298.6596883h103.01895111c16.777216 0 23.76772267-8.85464178 23.76772266-23.76772267v-90.92755911c0-16.777216-8.85464178-23.76772267-23.76772266-23.76772267h-103.01895111v138.46300445z m-51.29041541-138.43751822h-102.08688355c-15.84514845 0-23.76772267 7.45654045-23.76772267 23.76772267v90.87658666c0 15.43130075 6.99050667 23.81990875 23.76772267 23.81990874h102.08688355V160.22217008z m51.29041541 291.84151703c0 6.03173925 0 23.76650903-25.165824 23.76650904-23.79442252 0-26.12459141-13.98101333-26.12459141-23.76772267v-106.7994074h-114.66979555c-41.96852622 0-61.54315852-13.98101333-61.54315852-61.51645867v-109.10287644c0-48.02817897 20.04066608-61.05042489 61.54315852-61.05042489h114.66979555v-52.19578311c0-7.01720652 0.93206755-23.30168889 24.2604563-23.30168889 19.10738489 0 27.02995911 6.52447289 27.02995911 23.30168889v52.22126933h115.60186311c42.43456 0 61.54315852 13.98101333 61.54315852 61.05042488v109.10409007c0 46.137344-18.17653097 61.51645867-61.54315852 61.51645867h-115.60186311v106.77270756z" fill="#2c2c2c" p-id="4578"></path><path d="M961.07573097 669.49271703a25.89036089 25.89036089 0 0 1-25.11485156-32.25827555c9.26970311-36.48170667 13.95552711-74.25592889 13.95552711-112.28865423 0-249.82080475-202.75017955-453.08920415-451.97509215-453.08920414a25.89036089 25.89036089 0 0 1 0-51.78072178c277.78161778 0 503.75702755 226.492416 503.75702755 504.86992592 0 42.33140148-5.2307437 84.40308622-15.5611591 125.0256972a25.89036089 25.89036089 0 0 1-25.06145185 19.52244622M497.94131437 1029.81571318c-277.75613155 0-503.75702755-226.492416-503.75702755-504.86992593 0-40.26094933 4.76470992-80.33985422 14.1108717-119.09833007a25.89036089 25.89036089 0 0 1 50.35713423 12.14357807A455.88419318 455.88419318 0 0 0 45.96622222 524.94578725C45.96622222 774.76537837 248.69091555 978.03377778 497.94131437 978.03377778a25.89036089 25.89036089 0 1 1 0 51.7819354" fill="#2c2c2c" p-id="4579"></path></svg>